PathFileType	4	(x/y/z)	S10_M20_T34
DataRate	CameraRate	NumFrames	NumMarkers	Units	OrigDataRate	OrigDataStartFrame	OrigNumFrames
240	240	9	51	mm	240	134	534
Frame#	Time	Sternum			R.Acromium			L.Acromium			Top.Head			R.ASIS			L.ASIS			R.PSIS			L.PSIS			R.Great.Tro			L.Great.Tro			R.Iliac.Crest			L.Iliac.Crest			V.Sacral			R.Thigh.Upper.Post			R.Thigh.Lower.Ant			R.Thigh.Lower.Post			R.Thigh.Upper.Ant			R.Knee.Lat			R.Knee.Med			R.Shank.Upper.Post			R.Shank.Lower.Ant			R.Shank.Lower.Post			R.Shank.Upper.Ant			R.Ankle.Lat			R.Ankle.Med			R.Heel.Upper			R.Heel.Med			R.Heel.Lat			R.Toe.Lat			R.Toe.Med			R.Toe.Tip			L.Thigh.Upper.Post			L.Thigh.Lower.Ant			L.Thigh.Lower.Post			L.Thigh.Upper.Ant			L.Knee.Lat			L.Knee.Med			L.Shank.Upper.Post			L.Shank.Lower.Ant			L.Shank.Lower.Post			L.Shank.Upper.Ant			L.Ankle.Lat			L.Ankle.Med			L.Heel.Upper			L.Heel.Med			L.Heel.Lat			L.Toe.Lat			L.Toe.Med			L.Toe.Tip			Cervical.Spine			Back			
		X1	Y1	Z1	X2	Y2	Z2	X3	Y3	Z3	X4	Y4	Z4	X5	Y5	Z5	X6	Y6	Z6	X7	Y7	Z7	X8	Y8	Z8	X9	Y9	Z9	X10	Y10	Z10	X11	Y11	Z11	X12	Y12	Z12	X13	Y13	Z13	X14	Y14	Z14	X15	Y15	Z15	X16	Y16	Z16	X17	Y17	Z17	X18	Y18	Z18	X19	Y19	Z19	X20	Y20	Z20	X21	Y21	Z21	X22	Y22	Z22	X23	Y23	Z23	X24	Y24	Z24	X25	Y25	Z25	X26	Y26	Z26	X27	Y27	Z27	X28	Y28	Z28	X29	Y29	Z29	X30	Y30	Z30	X31	Y31	Z31	X32	Y32	Z32	X33	Y33	Z33	X34	Y34	Z34	X35	Y35	Z35	X36	Y36	Z36	X37	Y37	Z37	X38	Y38	Z38	X39	Y39	Z39	X40	Y40	Z40	X41	Y41	Z41	X42	Y42	Z42	X43	Y43	Z43	X44	Y44	Z44	X45	Y45	Z45	X46	Y46	Z46	X47	Y47	Z47	X48	Y48	Z48	X49	Y49	Z49	X50	Y50	Z50	X51	Y51	Z51	

134	0.55417	-94.077	1264.1	286.64	-237.98	1415.7	428	-185.82	1449.2	127.89	-250	1733.4	303.76	-146.22	992.92	376.42	-154.38	1010.7	146.84	-349.36	1019.6	297.4	-349.35	1031.3	216.43	-209.6	914.23	451.95	-224.61	949.71	86.434	-241.05	1073.7	426.07	-217.93	1089.7	123.48	-372.34	992.64	259.18	-111.6	730.57	457.35	-27.901	687.85	417.7	-74.148	649.44	451.67	-64.891	770.83	417.45	-15.395	536.5	415.26	-19.688	532.75	286.36	-24.281	306.04	427.45	57.08	263.54	422.16	-1.7546	234.38	425.35	39.799	338.7	422.44	49.766	128.18	415.19	69.26	140.26	338.7	16.091	61.767	363.4	37.444	40.428	338.76	25.634	40.917	398.74	183.68	91.343	462.38	217.26	108	358.26	259.74	145.59	404.64	-327.82	695.6	97.82	-278.2	598.79	122.34	-351.95	605.07	119.28	-250.54	683.39	100.84	-340.13	509.44	130.12	-334.67	507.03	258.08	-445.69	309.39	138.25	-397.23	212.44	163.02	-457.4	233.91	153.59	-385.24	287.2	148.16	-450.88	109.34	172.43	-442.45	122.62	259.89	-529.27	82.908	220.59	-518.4	47.798	251.67	-523.17	53.569	187.63	-347.02	40.643	149.25	-320.26	40.938	257.99	-262.82	49.945	209.41	-289.38	1485.5	276.25	-374.73	1278.9	249.94
135	0.55833	-88.7	1263	287.09	-232.9	1414.6	428.36	-180.24	1448.1	128.32	-244.67	1732.3	304.28	-140.68	991.73	376.49	-149.25	1009.5	146.91	-343.93	1018.5	297.67	-344.59	1030.4	216.6	-204.31	912.96	451.99	-219.78	948.76	86.436	-235.54	1072.5	426.21	-212.69	1088.7	123.73	-367.02	991.64	259.47	-107.28	728.7	457.55	-23.487	685.95	418.2	-70.029	647.51	451.74	-60.276	769.02	418.08	-10.774	534.98	415.22	-14.561	531.15	286.26	-14.291	304.59	427.79	67.982	263.98	422.33	9.8724	233.42	425.62	48.935	338.71	422.57	64.079	128.35	415.52	83.105	140.89	339.05	31.804	61.194	363.96	53.629	40.382	339.24	42.017	40.527	399.24	199.08	94.643	462.45	231.89	112.18	358.17	273.61	150.69	404.46	-324.8	695.44	97.604	-275.77	598.33	122.05	-349.5	605.06	119.05	-247.6	682.75	100.57	-338.31	509.33	129.83	-332.68	506.81	257.81	-444.75	309.7	138.13	-396.65	212.56	162.86	-456.75	234.27	153.52	-384.38	287.27	147.94	-450.65	109.58	172.45	-442.08	122.91	259.87	-529.09	83.276	220.68	-518.28	48.109	251.73	-523.06	53.95	187.69	-346.97	40.607	149.21	-320.16	40.907	257.95	-262.72	49.752	209.36	-283.96	1484.4	276.51	-369.35	1277.8	250.06
136	0.5625	-83.308	1261.8	287.55	-227.79	1413.5	428.74	-174.66	1447	128.77	-239.32	1731.1	304.81	-135.11	990.52	376.54	-144.12	1008.4	146.98	-338.48	1017.4	297.96	-339.81	1029.5	216.78	-198.96	911.66	452.03	-214.96	947.79	86.441	-230	1071.3	426.36	-207.45	1087.7	123.98	-361.67	990.61	259.77	-102.9	726.83	457.76	-19.046	684.01	418.69	-65.887	645.56	451.82	-55.613	767.17	418.7	-6.1772	533.42	415.2	-9.4892	529.5	286.19	-4.4007	303.2	428.14	78.727	264.48	422.48	21.362	232.55	425.89	57.956	338.75	422.69	78.155	128.65	415.82	96.711	141.63	339.37	47.271	60.802	364.47	69.549	40.513	339.67	58.141	40.324	399.69	214.17	98.037	462.47	246.19	116.44	358.05	287.15	155.83	404.25	-321.72	695.27	97.405	-273.27	597.87	121.78	-346.97	605.05	118.84	-244.61	682.09	100.32	-336.43	509.21	129.57	-330.61	506.6	257.56	-443.77	310.04	138.04	-396.05	212.69	162.71	-456.07	234.66	153.47	-383.48	287.35	147.75	-450.41	109.84	172.47	-441.68	123.21	259.86	-528.89	83.679	220.77	-518.14	48.459	251.79	-522.95	54.361	187.75	-346.92	40.571	149.18	-320.06	40.877	257.91	-262.62	49.553	209.31	-278.53	1483.2	276.79	-363.97	1276.6	250.22
137	0.56667	-77.899	1260.6	288	-222.64	1412.3	429.13	-169.07	1445.8	129.23	-233.97	1729.9	305.34	-129.51	989.29	376.58	-138.99	1007.2	147.03	-333	1016.3	298.26	-334.99	1028.5	216.99	-193.56	910.36	452.06	-210.13	946.81	86.449	-224.41	1070	426.51	-202.22	1086.7	124.24	-356.3	989.55	260.11	-98.468	724.94	457.96	-14.57	682.03	419.18	-61.711	643.59	451.92	-50.896	765.3	419.3	-1.5931	531.83	415.19	-4.4749	527.81	286.13	5.382	301.87	428.47	89.31	265.03	422.59	32.704	231.77	426.16	66.862	338.81	422.78	91.979	129.07	416.07	110.06	142.48	339.66	62.473	60.577	364.92	85.185	40.809	340.04	73.982	40.294	400.1	228.93	101.5	462.44	260.16	120.75	357.88	300.36	160.99	404.02	-318.58	695.09	97.228	-270.7	597.41	121.54	-344.38	605.03	118.66	-241.55	681.43	100.09	-334.48	509.09	129.34	-328.47	506.39	257.33	-442.75	310.39	137.97	-395.42	212.84	162.57	-455.36	235.07	153.44	-382.55	287.44	147.56	-450.15	110.12	172.5	-441.27	123.53	259.86	-528.67	84.122	220.86	-517.99	48.852	251.85	-522.83	54.804	187.81	-346.87	40.535	149.14	-319.96	40.848	257.87	-262.52	49.347	209.26	-273.07	1482.1	277.09	-358.56	1275.5	250.4
138	0.57083	-72.473	1259.4	288.47	-217.44	1411.2	429.54	-163.48	1444.6	129.69	-228.62	1728.6	305.88	-123.87	988.04	376.61	-133.84	1006	147.07	-327.5	1015.1	298.58	-330.12	1027.5	217.22	-188.09	909.04	452.1	-205.3	945.81	86.462	-218.8	1068.8	426.68	-196.98	1085.6	124.49	-350.92	988.47	260.46	-93.96	723.06	458.16	-10.051	680.01	419.66	-57.49	641.62	452.04	-46.115	763.4	419.87	2.9902	530.23	415.2	0.48131	526.07	286.09	15.05	300.61	428.8	99.723	265.61	422.67	43.886	231.08	426.41	75.647	338.89	422.85	105.54	129.59	416.28	123.15	143.42	339.9	77.391	60.506	365.32	100.52	41.255	340.36	89.522	40.423	400.45	243.34	105.01	462.37	273.77	125.09	357.68	313.21	166.14	403.76	-315.37	694.9	97.074	-268.06	596.94	121.32	-341.72	605	118.51	-238.43	680.77	99.885	-332.47	508.98	129.13	-326.24	506.19	257.13	-441.68	310.77	137.92	-394.76	213	162.44	-454.61	235.51	153.42	-381.57	287.54	147.4	-449.88	110.43	172.53	-440.83	123.87	259.86	-528.44	84.605	220.94	-517.83	49.29	251.91	-522.7	55.283	187.87	-346.82	40.498	149.11	-319.85	40.821	257.83	-262.41	49.135	209.21	-267.59	1480.9	277.4	-353.14	1274.3	250.61
139	0.575	-67.03	1258.2	288.93	-212.22	1410	429.96	-157.89	1443.4	130.16	-223.26	1727.4	306.43	-118.21	986.78	376.62	-128.69	1004.9	147.1	-321.99	1014	298.92	-325.18	1026.5	217.48	-182.56	907.72	452.13	-200.46	944.81	86.48	-213.14	1067.5	426.85	-191.75	1084.6	124.75	-345.51	987.36	260.84	-89.371	721.19	458.37	-5.4792	677.96	420.12	-53.212	639.64	452.17	-41.264	761.48	420.43	7.5849	528.62	415.23	5.3798	524.3	286.08	24.594	299.4	429.11	109.96	266.23	422.72	54.897	230.48	426.65	84.309	338.97	422.9	118.81	130.21	416.45	135.96	144.44	340.1	92.007	60.571	365.67	115.52	41.833	340.61	104.74	40.691	400.74	257.4	108.53	462.25	287.02	129.43	357.45	325.71	171.26	403.48	-312.1	694.7	96.948	-265.35	596.48	121.12	-338.99	604.98	118.4	-235.25	680.09	99.698	-330.4	508.87	128.95	-323.94	505.98	256.95	-440.57	311.17	137.9	-394.07	213.17	162.32	-453.84	235.96	153.42	-380.56	287.66	147.25	-449.6	110.76	172.57	-440.37	124.23	259.87	-528.18	85.133	221.02	-517.67	49.776	251.97	-522.56	55.799	187.92	-346.77	40.462	149.08	-319.73	40.798	257.79	-262.29	48.917	209.15	-262.09	1479.7	277.74	-347.7	1273.2	250.85
140	0.57917	-61.568	1256.9	289.39	-206.95	1408.7	430.4	-152.29	1442.1	130.64	-217.89	1726.1	306.99	-112.52	985.5	376.61	-123.52	1003.7	147.11	-316.45	1012.8	299.28	-320.16	1025.4	217.76	-176.97	906.39	452.17	-195.61	943.79	86.506	-207.45	1066.2	427.03	-186.53	1083.5	125.01	-340.09	986.24	261.24	-84.69	719.33	458.57	-0.84689	675.9	420.56	-48.867	637.67	452.32	-36.334	759.56	420.95	12.203	527.01	415.27	10.222	522.5	286.08	34.006	298.25	429.4	120.01	266.86	422.75	65.722	229.95	426.88	92.844	339.06	422.93	131.79	130.9	416.59	148.49	145.52	340.27	106.3	60.754	365.96	130.18	42.525	340.81	119.61	41.079	400.98	271.09	112.05	462.09	299.91	133.75	357.19	337.86	176.3	403.18	-308.76	694.5	96.851	-262.57	596.02	120.94	-336.2	604.95	118.31	-232.01	679.42	99.53	-328.25	508.76	128.8	-321.54	505.78	256.8	-439.42	311.6	137.89	-393.35	213.37	162.21	-453.02	236.45	153.44	-379.51	287.79	147.12	-449.29	111.12	172.62	-439.88	124.6	259.89	-527.91	85.707	221.1	-517.49	50.311	252.02	-522.41	56.355	187.98	-346.71	40.425	149.05	-319.61	40.777	257.74	-262.17	48.694	209.1	-256.57	1478.5	278.09	-342.25	1272	251.12
141	0.58333	-56.086	1255.6	289.85	-201.64	1407.5	430.85	-146.68	1440.9	131.12	-212.52	1724.8	307.55	-106.79	984.21	376.59	-118.34	1002.5	147.11	-310.89	1011.6	299.66	-315.07	1024.3	218.08	-171.31	905.06	452.22	-190.75	942.76	86.541	-201.71	1064.9	427.23	-181.3	1082.4	125.26	-334.64	985.1	261.67	-79.909	717.5	458.77	3.8548	673.83	420.97	-44.442	635.71	452.48	-31.32	757.64	421.43	16.859	525.41	415.32	15.011	520.69	286.11	43.277	297.16	429.66	129.87	267.51	422.75	76.348	229.49	427.09	101.25	339.16	422.95	144.45	131.65	416.7	160.71	146.65	340.4	120.25	61.035	366.19	144.48	43.31	340.94	134.12	41.565	401.16	284.4	115.54	461.88	312.42	138.01	356.89	349.64	181.25	402.87	-305.37	694.3	96.786	-259.73	595.57	120.79	-333.34	604.92	118.26	-228.71	678.75	99.381	-326.04	508.66	128.67	-319.06	505.57	256.67	-438.21	312.05	137.91	-392.6	213.58	162.11	-452.17	236.96	153.47	-378.41	287.94	147	-448.97	111.51	172.67	-439.37	125	259.92	-527.62	86.328	221.16	-517.3	50.897	252.08	-522.25	56.951	188.04	-346.65	40.389	149.01	-319.49	40.761	257.7	-262.04	48.465	209.04	-251.02	1477.3	278.46	-336.77	1270.8	251.43
142	0.5875	-50.584	1254.3	290.3	-196.29	1406.3	431.31	-141.07	1439.6	131.61	-207.14	1723.5	308.12	-101.04	982.92	376.55	-113.15	1001.3	147.11	-305.31	1010.4	300.07	-309.9	1023.2	218.43	-165.58	903.73	452.27	-185.88	941.73	86.587	-195.94	1063.6	427.43	-176.08	1081.3	125.51	-329.18	983.95	262.13	-75.02	715.71	458.97	8.6345	671.76	421.36	-39.926	633.79	452.65	-26.215	755.74	421.88	21.563	523.82	415.4	19.752	518.87	286.16	52.398	296.11	429.9	139.53	268.15	422.74	86.763	229.08	427.28	109.52	339.25	422.96	156.79	132.45	416.77	172.61	147.8	340.49	133.83	61.394	366.36	158.39	44.166	341.01	148.24	42.127	401.29	297.31	118.95	461.64	324.54	142.2	356.57	361.06	186.07	402.54	-301.92	694.1	96.754	-256.82	595.12	120.65	-330.41	604.9	118.24	-225.36	678.08	99.25	-323.77	508.57	128.57	-316.49	505.37	256.56	-436.97	312.53	137.95	-391.81	213.81	162.01	-451.29	237.51	153.52	-377.28	288.11	146.89	-448.63	111.93	172.73	-438.83	125.41	259.95	-527.3	86.998	221.23	-517.1	51.535	252.13	-522.07	57.591	188.09	-346.58	40.353	148.98	-319.36	40.751	257.65	-261.91	48.233	208.98	-245.45	1476.1	278.85	-331.28	1269.6	251.76
